# xmcd
#
# Track frame offsets:
#	150
#	14463
#	29057
#	43750
#	73946
#	86706
#	97678
#	111929
#	126511
#	139039
#	150723
#	164226
#	194099
#
# Disc length: 2774 seconds
#
# Revision: 0
# Processed by: cddbd v1.5.2PL0 Copyright (c) Steve Scherf et al.
# Submitted via: EasyCDDAExtractor 16.0.8.1
#
DISCID=c40ad40d
DTITLE=Wailin Willie Kueppers - Patchwork
DYEAR=2006
DGENRE=Blues
TTITLE0=Me and my Women
TTITLE1=Born under a bad Sign
TTITLE2=Friday Child
TTITLE3=So lonong Darling oh I hate tosee you go
TTITLE4=Reeds and Things
TTITLE5=I got the same old Blues
TTITLE6=Just around this Corner
TTITLE7=Pretty good Chatch tonight
TTITLE8=Taras Tune
TTITLE9=When Lights go town
TTITLE10=What a lazy Monday
TTITLE11=Love Potion Number nine
TTITLE12=Misty
EXTD=
EXTT0=
EXTT1=
EXTT2=
EXTT3=
EXTT4=
EXTT5=
EXTT6=
EXTT7=
EXTT8=
EXTT9=
EXTT10=
EXTT11=
EXTT12=
PLAYORDER=
